<svg width="14" height="14" viewBox="0 0 14 14" fill="none" xmlns="http://www.w3.org/2000/svg">
<path fill-rule="evenodd" clip-rule="evenodd" d="M7.0007 0.899414C5.26255 0.899414 5.04441 0.907014 4.36174 0.938081C3.6804 0.969281 3.21533 1.07715 2.80839 1.23542C2.38745 1.39889 2.03038 1.61755 1.67464 1.97343C1.31864 2.32916 1.09997 2.68623 0.935968 3.10704C0.7773 3.51411 0.669298 3.97931 0.638631 4.66039C0.608098 5.34306 0.600098 5.56133 0.600098 7.29948C0.600098 9.03763 0.607831 9.2551 0.638765 9.93777C0.670098 10.6191 0.777966 11.0842 0.936101 11.4911C1.0997 11.9121 1.31837 12.2691 1.67424 12.6249C2.02985 12.9809 2.38692 13.2001 2.80759 13.3635C3.21479 13.5218 3.68 13.6297 4.3612 13.6609C5.04388 13.6919 5.26188 13.6995 6.9999 13.6995C8.73818 13.6995 8.95565 13.6919 9.63833 13.6609C10.3197 13.6297 10.7853 13.5218 11.1925 13.3635C11.6133 13.2001 11.9698 12.9809 12.3254 12.6249C12.6814 12.2691 12.9001 11.9121 13.0641 11.4913C13.2214 11.0842 13.3294 10.619 13.3614 9.93791C13.3921 9.25523 13.4001 9.03763 13.4001 7.29948C13.4001 5.56133 13.3921 5.34319 13.3614 4.66052C13.3294 3.97918 13.2214 3.51411 13.0641 3.10717C12.9001 2.68623 12.6814 2.32916 12.3254 1.97343C11.9694 1.61742 11.6134 1.39875 11.1921 1.23542C10.7841 1.07715 10.3187 0.969281 9.63739 0.938081C8.95472 0.907014 8.73738 0.899414 6.9987 0.899414H7.0007ZM6.42653 2.05274C6.59693 2.05247 6.78707 2.05274 7.00067 2.05274C8.70949 2.05274 8.91202 2.05887 9.58683 2.08954C10.2108 2.11808 10.5495 2.22234 10.7751 2.30994C11.0738 2.42595 11.2867 2.56461 11.5106 2.78862C11.7346 3.01262 11.8733 3.22595 11.9895 3.52462C12.0771 3.74996 12.1815 4.08863 12.2099 4.71264C12.2406 5.38731 12.2473 5.58998 12.2473 7.298C12.2473 9.00601 12.2406 9.20868 12.2099 9.88336C12.1814 10.5074 12.0771 10.846 11.9895 11.0714C11.8735 11.37 11.7346 11.5827 11.5106 11.8066C11.2866 12.0306 11.0739 12.1692 10.7751 12.2852C10.5498 12.3732 10.2108 12.4773 9.58683 12.5058C8.91216 12.5365 8.70949 12.5431 7.00067 12.5431C5.29172 12.5431 5.08918 12.5365 4.41451 12.5058C3.7905 12.477 3.45183 12.3727 3.2261 12.2851C2.92743 12.1691 2.71409 12.0304 2.49009 11.8064C2.26609 11.5824 2.12742 11.3696 2.01115 11.0708C1.92355 10.8455 1.81915 10.5068 1.79075 9.88282C1.76008 9.20815 1.75395 9.00548 1.75395 7.2964C1.75395 5.58731 1.76008 5.38571 1.79075 4.71104C1.81928 4.08703 1.92355 3.74836 2.01115 3.52276C2.12715 3.22409 2.26609 3.01075 2.49009 2.78675C2.71409 2.56275 2.92743 2.42408 3.2261 2.30781C3.4517 2.21981 3.7905 2.11581 4.41451 2.08714C5.00492 2.06047 5.23372 2.05247 6.42653 2.05114V2.05274ZM10.417 3.11542C9.99297 3.11542 9.64897 3.45903 9.64897 3.88316C9.64897 4.30717 9.99297 4.65117 10.417 4.65117C10.841 4.65117 11.185 4.30717 11.185 3.88316C11.185 3.45916 10.841 3.11542 10.417 3.11542ZM7.00071 4.01276C5.18562 4.01276 3.71401 5.48438 3.71401 7.29946C3.71401 9.11455 5.18562 10.5855 7.00071 10.5855C8.81579 10.5855 10.2869 9.11455 10.2869 7.29946C10.2869 5.48438 8.81579 4.01276 7.00071 4.01276ZM7.00068 5.16611C8.17883 5.16611 9.13404 6.12118 9.13404 7.29946C9.13404 8.47761 8.17883 9.43282 7.00068 9.43282C5.8224 9.43282 4.86733 8.47761 4.86733 7.29946C4.86733 6.12118 5.8224 5.16611 7.00068 5.16611Z" fill="#EA3824"/>
</svg>
