<svg width="162" height="70" viewBox="0 0 162 70" fill="none" xmlns="http://www.w3.org/2000/svg">
<path d="M15.3584 34.9975C15.8137 34.4016 16.3395 33.8912 16.8481 33.3588C16.8767 33.3303 16.9034 33.2997 16.932 33.269C17.3358 32.8221 17.734 32.3664 18.1474 31.9304C18.6713 31.3761 19.1876 30.8153 19.7038 30.2522C20.1648 29.7505 20.6316 29.2554 21.0964 28.7559C21.8699 27.9256 22.6433 27.0909 23.413 26.254C23.8797 25.7457 24.3522 25.244 24.8227 24.7402C25.5866 23.9208 26.3467 23.0992 27.1069 22.2755C27.5736 21.7694 28.0461 21.2677 28.5166 20.7616C29.2843 19.9357 30.0521 19.1098 30.816 18.2795C31.2885 17.7668 31.7647 17.2563 32.241 16.7481C32.9992 15.9353 33.7536 15.1203 34.508 14.3031C34.9862 13.7839 35.47 13.2713 35.9501 12.752C36.4569 12.2043 36.9655 11.6566 37.4723 11.1089C37.958 10.5853 38.4438 10.0617 38.9296 9.54031C39.4326 8.99918 39.9355 8.45805 40.4365 7.91692C40.9261 7.38674 41.4195 6.86095 41.911 6.33077C42.3911 5.81374 42.8731 5.29671 43.3532 4.77968C43.8618 4.23197 44.3666 3.68208 44.8753 3.13657C45.363 2.61516 45.8392 2.0806 46.3365 1.57233C46.6508 1.25247 46.9118 0.858125 47.2738 0.599609C47.3138 0.645616 47.308 0.687242 47.2852 0.722295C46.7118 1.66215 46.1364 2.59982 45.5649 3.54187C44.5438 5.22003 43.5227 6.896 42.5054 8.57635C41.6443 9.996 40.7909 11.42 39.9298 12.8397C39.2363 13.9855 38.5372 15.1269 37.8437 16.2727C36.8931 17.8391 35.9444 19.4077 34.9938 20.9742C34.4051 21.9447 33.8146 22.9108 33.2278 23.8814C32.2772 25.4478 31.3285 27.0164 30.3778 28.5828C29.6825 29.7286 28.9871 30.8722 28.2899 32.0158C27.7089 32.971 27.1259 33.924 26.543 34.877C26.5201 34.9165 26.5087 34.9515 26.5087 34.9953C22.7919 34.9975 19.0752 34.9975 15.3584 34.9975Z" fill="white"/>
<path d="M46.209 34.9979C46.249 34.2771 46.31 33.5585 46.3881 32.8421C46.4338 32.4237 46.449 32.0008 46.4852 31.5802C46.5424 30.8967 46.6186 30.2131 46.6605 29.5274C46.6852 29.1221 46.7253 28.7212 46.7557 28.3181C46.811 27.617 46.8758 26.916 46.931 26.2127C46.9672 25.7592 47.0072 25.3035 47.0377 24.8478C47.0815 24.1884 47.1577 23.5333 47.2129 22.8739C47.2491 22.4445 47.272 22.0151 47.3082 21.5857C47.3654 20.9109 47.4377 20.2362 47.4854 19.5592C47.5139 19.1561 47.554 18.753 47.5749 18.3499C47.5844 18.1615 47.6416 18.1461 47.7749 18.1461C48.636 18.1505 49.4971 18.1483 50.3563 18.1483C51.0269 18.1483 51.6974 18.1593 52.368 18.1418C52.5623 18.1374 52.5814 18.2272 52.5642 18.3981C52.488 19.1999 52.3909 20.0018 52.3433 20.8058C52.3147 21.279 52.2632 21.75 52.2366 22.2232C52.2023 22.8476 52.0956 23.4676 52.0689 24.092C52.0461 24.6003 51.947 25.1042 51.9699 25.6278C52.1832 25.5861 52.2842 25.3692 52.429 25.2378C52.9567 24.758 53.4577 24.2388 53.9759 23.7415C54.5836 23.1587 55.1989 22.5847 55.8085 22.002C56.2277 21.5989 56.6392 21.1848 57.0583 20.7817C57.5802 20.28 58.1079 19.7871 58.6299 19.2854C58.9633 18.9655 59.2929 18.6391 59.6187 18.3083C59.712 18.2141 59.8034 18.1461 59.9349 18.1461C60.9255 18.1505 61.9161 18.1483 62.9277 18.1483C62.8306 18.3586 62.6553 18.455 62.5201 18.5887C62.0133 19.0948 61.4875 19.5789 60.9674 20.0675C60.2969 20.6984 59.6225 21.325 58.9557 21.9603C58.4489 22.4445 57.9517 22.9418 57.445 23.426C57.0545 23.7984 56.6563 24.1599 56.26 24.5258C56.1667 24.6112 56.121 24.6857 56.2143 24.8281C56.8335 25.7767 57.4431 26.7341 58.0565 27.6871C58.6299 28.5788 59.2053 29.4704 59.7787 30.3621C60.5369 31.5429 61.3027 32.7172 62.0495 33.9068C62.2743 34.2639 62.5448 34.5838 62.7048 34.9913C60.6017 34.9913 58.5004 34.9913 56.3972 34.9913C56.1115 34.5159 55.8314 34.0361 55.5399 33.5629C54.6979 32.1914 53.854 30.8244 53.0081 29.4551C52.6081 28.8066 52.2042 28.1581 51.7889 27.4899C51.7698 27.7748 51.7565 28.0311 51.7336 28.2874C51.6974 28.6993 51.6727 29.1111 51.6346 29.523C51.5717 30.2066 51.5165 30.8901 51.4612 31.5758C51.4269 31.9964 51.3945 32.4171 51.3602 32.8377C51.3012 33.5563 51.2269 34.2727 51.1869 34.9935C49.5295 34.9979 47.8702 34.9979 46.209 34.9979Z" fill="white"/>
<path d="M145.253 34.9977C145.314 34.3668 145.392 33.738 145.428 33.1071C145.453 32.6777 145.497 32.2483 145.529 31.8189C145.58 31.1266 145.628 30.4321 145.706 29.742C145.752 29.3323 145.771 28.9182 145.801 28.5064C145.855 27.8141 145.904 27.1196 145.979 26.4295C146.028 25.9847 146.034 25.5356 146.078 25.0909C146.14 24.4424 146.184 23.7917 146.247 23.1432C146.289 22.7073 146.316 22.2691 146.352 21.831C146.407 21.1649 146.464 20.4967 146.521 19.8307C146.561 19.3597 146.628 18.8887 146.622 18.4133C146.621 18.2271 146.661 18.1504 146.838 18.1504C148.369 18.157 149.899 18.157 151.431 18.1504C151.593 18.1504 151.621 18.2183 151.61 18.376C151.57 18.8799 151.524 19.3838 151.482 19.8899C151.446 20.3171 151.412 20.7465 151.379 21.1759C151.328 21.8682 151.273 22.5627 151.204 23.2528C151.166 23.6449 151.149 24.0415 151.109 24.4358C151.067 24.8499 151.046 25.2683 151.015 25.7131C151.572 25.1719 152.105 24.6483 152.644 24.1335C153.161 23.6384 153.683 23.152 154.199 22.6569C154.618 22.2538 155.031 21.8419 155.45 21.4388C155.87 21.0379 156.294 20.6457 156.713 20.2448C157.127 19.8483 157.536 19.443 157.948 19.0442C158.234 18.766 158.521 18.4922 158.805 18.2139C158.851 18.1701 158.895 18.1592 158.95 18.1592C159.952 18.1592 160.956 18.1592 162 18.1592C161.741 18.5031 161.438 18.7266 161.171 18.9939C160.783 19.3816 160.377 19.7475 159.979 20.1243C159.466 20.6107 158.952 21.0948 158.439 21.5812C158.047 21.9536 157.66 22.3348 157.27 22.7073C156.78 23.1717 156.287 23.6296 155.797 24.0941C155.618 24.2649 155.445 24.4424 155.266 24.6133C155.189 24.6856 155.229 24.736 155.273 24.8039C155.609 25.3253 155.94 25.8489 156.275 26.3703C156.853 27.2685 157.432 28.1668 158.011 29.065C158.725 30.1758 159.442 31.2865 160.154 32.3994C160.706 33.2648 161.255 34.1345 161.806 35.0021C159.687 35.0021 157.571 35.0021 155.452 35.0021C155.45 34.9758 155.458 34.943 155.447 34.9254C155.148 34.4369 154.847 33.9527 154.547 33.4664C153.704 32.0971 152.861 30.7278 152.018 29.3608C151.648 28.7605 151.275 28.1624 150.865 27.5052C150.836 27.8425 150.812 28.112 150.791 28.3837C150.758 28.8394 150.734 29.295 150.695 29.7485C150.64 30.397 150.572 31.0455 150.516 31.694C150.478 32.1387 150.459 32.5878 150.421 33.0326C150.366 33.6898 150.301 34.3449 150.24 35.0021C148.575 34.9977 146.914 34.9977 145.253 34.9977Z" fill="white"/>
<path d="M122.171 34.9979C122.223 34.3143 122.283 33.6308 122.343 32.9473C122.383 32.4938 122.411 32.0381 122.445 31.5824C122.495 30.9317 122.546 30.281 122.617 29.6326C122.64 29.4266 122.531 29.4924 122.459 29.4924C121.826 29.488 121.194 29.4902 120.563 29.4902C119.428 29.4902 118.294 29.4967 117.159 29.488C116.456 29.4836 115.755 29.4135 115.079 29.1725C114.202 28.8614 113.598 28.2217 113.375 27.1789C113.248 26.583 113.276 25.9739 113.341 25.3692C113.366 25.1392 113.366 24.907 113.389 24.6748C113.471 23.8182 113.505 22.9572 113.585 22.1006C113.654 21.3557 113.707 20.6108 113.768 19.8659C113.812 19.3358 113.867 18.8056 113.897 18.2754C113.909 18.0826 114.025 18.1615 114.097 18.1615C115.34 18.1571 116.58 18.1571 117.822 18.1571C118.111 18.1571 118.401 18.1615 118.691 18.1549C118.83 18.1527 118.894 18.1396 118.851 18.3718C118.776 18.7727 118.778 19.1934 118.744 19.603C118.689 20.2778 118.639 20.9548 118.571 21.6295C118.529 22.0305 118.506 22.4358 118.473 22.8389C118.416 23.5224 118.357 24.2059 118.3 24.8917C118.262 25.3451 118.212 25.8008 118.195 26.2565C118.186 26.5129 118.172 26.7757 118.123 27.0255C118.092 27.1832 118.142 27.1832 118.239 27.1832C118.597 27.181 118.955 27.1832 119.313 27.1832C120.418 27.1832 121.521 27.1832 122.626 27.1854C122.739 27.1854 122.804 27.192 122.823 27.0058C122.878 26.4844 122.903 25.9608 122.95 25.4415C123.009 24.7931 123.074 24.1446 123.129 23.4961C123.167 23.0579 123.188 22.6198 123.225 22.1816C123.28 21.5244 123.354 20.8671 123.4 20.2099C123.428 19.798 123.472 19.3861 123.489 18.9743C123.499 18.7399 123.556 18.5142 123.545 18.2776C123.535 18.0848 123.668 18.1637 123.741 18.1637C125.013 18.1593 126.284 18.1593 127.557 18.1593C127.808 18.1593 128.06 18.1659 128.311 18.1571C128.429 18.1527 128.496 18.1746 128.483 18.3367C128.441 18.8319 128.401 19.3292 128.357 19.8243C128.319 20.2427 128.288 20.6634 128.254 21.084C128.197 21.7763 128.153 22.4708 128.075 23.1609C128.025 23.5969 128.014 24.0372 127.978 24.4732C127.922 25.1305 127.856 25.7877 127.799 26.4449C127.762 26.8743 127.741 27.3037 127.701 27.7331C127.64 28.3904 127.595 29.0498 127.53 29.7071C127.49 30.1255 127.461 30.5483 127.429 30.9668C127.374 31.6503 127.319 32.336 127.256 33.0196C127.218 33.438 127.176 33.8586 127.159 34.2793C127.149 34.5203 127.077 34.7569 127.109 35.0022C125.463 34.9979 123.817 34.9979 122.171 34.9979Z" fill="white"/>
<path d="M0 34.9447C0.7163 34.4474 1.4326 33.9501 2.14699 33.4506C3.09571 32.7846 4.04252 32.1164 4.98933 31.4504C5.96282 30.7668 6.9382 30.0877 7.91168 29.4041C8.84707 28.7491 9.78245 28.0918 10.7178 27.4346C11.6989 26.7467 12.6781 26.061 13.6592 25.373C14.4746 24.8012 15.2919 24.2316 16.1053 23.6576C17.1493 22.9259 18.1914 22.192 19.2334 21.4581C20.2069 20.7745 21.1785 20.0866 22.1501 19.4031C23.0911 18.7415 24.0361 18.082 24.9771 17.4226C25.8687 16.7982 26.7603 16.176 27.6518 15.5494C28.5929 14.8878 29.5359 14.2262 30.477 13.5646C31.4619 12.8723 32.4469 12.1778 33.4337 11.4855C34.2929 10.8808 35.152 10.2784 36.0131 9.67807C36.3598 9.43708 36.7123 9.20267 37.0609 8.96387C37.0723 8.97701 37.0857 8.98797 37.0971 9.00111C36.5961 9.49185 36.0912 9.9804 35.594 10.4755C35.1901 10.8764 34.7977 11.2905 34.3938 11.6914C33.9004 12.18 33.3975 12.6576 32.9041 13.1439C32.5116 13.5317 32.1287 13.9348 31.7363 14.3226C31.2314 14.8221 30.719 15.3128 30.2141 15.8123C29.8388 16.1826 29.4693 16.5638 29.094 16.9362C28.572 17.4533 28.0462 17.9659 27.5242 18.4829C27.1546 18.8488 26.7908 19.2212 26.4212 19.5871C25.8878 20.1151 25.3505 20.6387 24.8171 21.1689C24.4418 21.5413 24.0742 21.9225 23.6989 22.2928C23.1769 22.8098 22.6492 23.3203 22.1272 23.8373C21.7519 24.2097 21.3823 24.5887 21.007 24.9612C20.485 25.4782 19.9592 25.9908 19.4373 26.5079C19.062 26.8803 18.6924 27.2593 18.3171 27.6318C17.7894 28.1554 17.2579 28.6724 16.7302 29.196C16.3549 29.5684 15.9872 29.9496 15.6119 30.3199C15.0899 30.8369 14.5641 31.3474 14.0402 31.8644C13.6764 32.2237 13.3163 32.5918 12.9525 32.9511C12.4133 33.4856 11.8704 34.0158 11.3332 34.5525C11.1922 34.6928 11.0607 34.8439 10.9255 34.9907C7.3535 34.9907 3.77963 34.9907 0.207651 34.9885C0.139069 34.9929 0.0514364 35.0542 0 34.9447Z" fill="white"/>
<path d="M97.5369 34.9975C97.5578 34.2219 97.6397 33.453 97.7159 32.684C97.7579 32.2655 97.7788 31.8427 97.8112 31.4221C97.8645 30.7386 97.9198 30.0528 97.9845 29.3715C98.0246 28.9443 98.0455 28.5127 98.0836 28.0855C98.1446 27.3932 98.1884 26.6987 98.2589 26.0086C98.3008 25.5901 98.3217 25.1673 98.3579 24.7489C98.417 24.0478 98.4799 23.3468 98.5332 22.6457C98.5675 22.1834 98.6113 21.719 98.6399 21.2545C98.6799 20.6039 98.7713 19.9576 98.8075 19.3069C98.8247 19.0133 98.8742 18.722 98.8628 18.4284C98.8571 18.2465 98.9047 18.1523 99.0933 18.1523C103.252 18.1589 107.409 18.1567 111.568 18.1545C111.724 18.1545 111.789 18.1743 111.728 18.3868C111.67 18.5883 111.682 18.814 111.67 19.0265C111.648 19.4493 111.583 19.8656 111.571 20.2862C111.569 20.3935 111.533 20.422 111.449 20.4155C111.396 20.4111 111.343 20.4155 111.289 20.4155C108.853 20.4155 106.416 20.422 103.978 20.4067C103.728 20.4045 103.677 20.5228 103.662 20.7485C103.618 21.4013 103.578 22.0542 103.523 22.7049C103.454 23.5067 103.376 24.3085 103.294 25.1104C103.273 25.3141 103.336 25.3513 103.503 25.3513C105.14 25.3448 106.778 25.3514 108.415 25.3404C108.609 25.3382 108.664 25.3974 108.645 25.6142C108.592 26.1882 108.548 26.7622 108.508 27.3362C108.5 27.4348 108.462 27.4501 108.394 27.448C108.34 27.4458 108.287 27.448 108.234 27.448C106.597 27.448 104.959 27.4501 103.323 27.4458C103.185 27.4458 103.122 27.4523 103.105 27.6561C103.029 28.5894 102.949 29.5227 102.879 30.4559C102.839 30.9949 102.778 31.5316 102.743 32.0728C102.73 32.2918 102.606 32.5854 102.741 32.7103C102.863 32.822 103.119 32.7475 103.317 32.7475C105.708 32.7475 108.098 32.7475 110.491 32.7475C110.573 32.7475 110.657 32.7475 110.726 32.7475C110.67 33.5143 110.617 34.2592 110.564 35.0041C106.22 34.9975 101.878 34.9975 97.5369 34.9975Z" fill="white"/>
<path d="M129.988 34.9981C130.05 34.435 130.089 33.8698 130.129 33.3046C130.188 32.4918 130.296 31.6834 130.344 30.8706C130.372 30.3974 130.424 29.9263 130.45 29.4531C130.487 28.8112 130.586 28.1737 130.618 27.5318C130.641 27.0827 130.689 26.6379 130.721 26.1932C130.769 25.525 130.841 24.8612 130.896 24.193C130.934 23.7461 130.955 23.2991 130.992 22.8522C131.047 22.1774 131.113 21.5027 131.171 20.8279C131.207 20.3897 131.233 19.9516 131.266 19.5134C131.296 19.0928 131.329 18.6721 131.355 18.2515C131.361 18.1683 131.395 18.1485 131.456 18.1529C131.494 18.1551 131.533 18.1529 131.571 18.1529C135.737 18.1529 139.903 18.1529 144.07 18.1529C144.115 18.1529 144.161 18.1529 144.205 18.1529C144.222 18.6897 144.112 19.2089 144.102 19.7369C144.098 19.9231 144.045 20.1115 144.06 20.3021C144.066 20.3788 144.035 20.4138 143.969 20.4095C143.915 20.4073 143.862 20.4095 143.809 20.4095C141.349 20.4095 138.888 20.4138 136.429 20.4029C136.204 20.4029 136.16 20.4817 136.147 20.7271C136.108 21.3953 136.046 22.0613 135.981 22.7273C135.943 23.1195 135.908 23.516 135.886 23.9104C135.863 24.3157 135.815 24.7166 135.785 25.1197C135.769 25.3081 135.828 25.3475 135.985 25.3475C137.623 25.341 139.259 25.3432 140.898 25.3432C141.17 25.3432 141.174 25.3519 141.105 25.6696C141.058 25.8887 141.075 26.1165 141.056 26.3378C141.031 26.6116 140.972 26.8855 140.995 27.1637C141.012 27.3653 140.942 27.4485 140.749 27.4485C139.118 27.4398 137.49 27.4507 135.859 27.4354C135.621 27.4332 135.573 27.5581 135.558 27.7684C135.51 28.4212 135.474 29.0741 135.419 29.727C135.35 30.5398 135.266 31.3482 135.194 32.161C135.177 32.3472 135.219 32.54 135.143 32.7459C135.24 32.7459 135.324 32.7459 135.406 32.7459C137.888 32.7459 140.372 32.7459 142.854 32.7459C143.216 32.7459 143.243 32.7897 143.191 33.2016C143.117 33.7975 143.07 34.3978 143.054 35.0024C138.701 34.9981 134.344 34.9981 129.988 34.9981Z" fill="white"/>
<path d="M64.3545 34.9977C64.3831 34.2419 64.4612 33.4904 64.5279 32.7368C64.566 32.3008 64.5907 31.8605 64.6288 31.4245C64.6879 30.741 64.7641 30.0574 64.8041 29.3739C64.8289 28.9599 64.8708 28.5502 64.9012 28.1383C64.9546 27.4285 65.0213 26.7187 65.0765 26.0088C65.1108 25.5553 65.1527 25.0996 65.1832 24.644C65.227 23.9845 65.3032 23.3295 65.3585 22.6722C65.3947 22.2341 65.4175 21.7959 65.4537 21.3577C65.5109 20.6742 65.5756 19.9907 65.6328 19.3071C65.6576 19.0158 65.6709 18.72 65.6804 18.4264C65.6861 18.2446 65.7242 18.1504 65.9128 18.1504C70.0716 18.157 74.2284 18.1548 78.3871 18.1526C78.5452 18.1526 78.6062 18.1723 78.5452 18.3848C78.4881 18.5864 78.5109 18.8098 78.4843 19.0245C78.4328 19.4408 78.4119 19.8636 78.389 20.2842C78.3833 20.3916 78.349 20.4201 78.2671 20.4135C78.2138 20.4091 78.1604 20.4135 78.1071 20.4135C75.6705 20.4135 73.2339 20.4201 70.7955 20.4047C70.5459 20.4025 70.4945 20.5208 70.4792 20.7465C70.4354 21.3994 70.3954 22.0522 70.3402 22.7051C70.2716 23.5069 70.1935 24.3088 70.1116 25.1106C70.0906 25.3143 70.1535 25.3516 70.3211 25.3516C71.9576 25.345 73.5959 25.3516 75.2323 25.3406C75.4267 25.3384 75.4819 25.3976 75.4629 25.6145C75.4095 26.1885 75.3657 26.7625 75.3257 27.3365C75.3181 27.435 75.28 27.4504 75.2114 27.4482C75.1352 27.446 75.059 27.4482 74.9828 27.4482C73.3692 27.4482 71.7537 27.4504 70.1401 27.446C70.003 27.446 69.9401 27.4526 69.923 27.6563C69.8449 28.6071 69.7629 29.5558 69.6982 30.5088C69.6544 31.1682 69.5839 31.8232 69.5172 32.4805C69.4962 32.6952 69.5515 32.7543 69.7458 32.7543C72.2662 32.7456 74.7866 32.7478 77.307 32.7478C77.3889 32.7478 77.4727 32.7478 77.5432 32.7478C77.4879 33.5145 77.4327 34.2594 77.3793 35.0043C73.0377 34.9977 68.6961 34.9977 64.3545 34.9977Z" fill="white"/>
<path d="M78.7969 34.9975C79.0121 34.5155 79.2255 34.0313 79.4465 33.5537C79.7284 32.9469 80.018 32.3444 80.3057 31.7397C80.9591 30.3683 81.6144 28.9968 82.2641 27.6232C82.6146 26.8849 82.9499 26.1378 83.3004 25.3973C83.9596 23.9996 84.6263 22.6062 85.2855 21.2107C85.6379 20.4636 85.9865 19.7122 86.3352 18.9651C86.3847 18.8599 86.4514 18.7635 86.48 18.6518C86.5923 18.2093 86.8495 18.1326 87.2248 18.1435C88.3202 18.1764 89.4175 18.1611 90.5149 18.1501C90.6882 18.1479 90.7625 18.2158 90.8178 18.3977C91.2864 19.9663 91.7474 21.5393 92.2408 23.097C92.6904 24.5122 93.121 25.9363 93.5591 27.3559C94.1726 29.3517 94.7803 31.3476 95.3975 33.3412C95.5671 33.8911 95.7652 34.43 95.8909 34.9975C94.0621 34.9975 92.2351 34.9975 90.4063 34.9975C90.4005 34.9471 90.3986 34.8945 90.3853 34.8463C90.2367 34.3052 90.0767 33.7684 89.9281 33.2273C89.4499 31.4856 88.9489 29.7505 88.4593 28.011C88.1545 26.9331 87.8573 25.8508 87.5525 24.7729C87.3944 24.2121 87.2248 23.6556 87.04 23.0247C87.0172 23.2284 86.9276 23.3139 86.8762 23.4278C86.3714 24.5232 85.8589 25.6164 85.3522 26.7096C84.8549 27.7809 84.3615 28.8566 83.8662 29.9279C83.2947 31.1657 82.7194 32.4035 82.1479 33.6413C81.9402 34.0905 81.7116 34.5242 81.5382 34.9931C80.6257 34.9975 79.7113 34.9975 78.7969 34.9975Z" fill="white"/>
<path d="M30.5322 34.9976C30.7761 34.5113 31.0199 34.0271 31.2619 33.5407C31.7762 32.5001 32.2925 31.4595 32.8031 30.4166C33.165 29.6761 33.5194 28.9313 33.8832 28.1908C34.39 27.1633 34.9043 26.1424 35.4092 25.1127C35.8302 24.2561 36.2417 23.3907 36.6646 22.5341C37.1713 21.5066 37.6838 20.4835 38.1924 19.4582C38.3772 19.0858 38.5544 18.7089 38.7621 18.2773C38.7621 18.9017 38.682 19.4538 38.6363 20.0081C38.6173 20.2294 38.602 20.4528 38.583 20.6763C38.522 21.3861 38.4572 22.0959 38.4039 22.8058C38.3677 23.2768 38.322 23.75 38.2953 24.2232C38.261 24.8476 38.1601 25.4676 38.1277 26.092C38.1048 26.5411 38.061 26.9858 38.0229 27.4306C37.9696 28.079 37.9162 28.7297 37.8572 29.3782C37.8152 29.8229 37.7886 30.2698 37.7505 30.7168C37.6952 31.374 37.6495 32.0334 37.5809 32.6907C37.539 33.0828 37.5123 33.4794 37.4857 33.8737C37.459 34.2505 37.4323 34.6252 37.3885 34.9998C35.1025 34.9976 32.8164 34.9976 30.5322 34.9976Z" fill="white"/>
<path d="M0.68 65L3.48 51H6.72L3.92 65H0.68ZM4.1 59.34L4.62 56.66H9.52L9 59.34H4.1ZM9.96 65L6.94 58.24L9.64 56.74L13.44 65H9.96ZM9.72 58.34L6.6 57.98L12.54 51H16.18L9.72 58.34ZM20.3397 65.16C19.2197 65.16 18.2464 64.96 17.4197 64.56C16.6064 64.16 15.973 63.6 15.5197 62.88C15.0664 62.16 14.8397 61.3133 14.8397 60.34C14.8397 59.14 15.1064 58.0733 15.6397 57.14C16.1864 56.1933 16.933 55.4467 17.8797 54.9C18.8397 54.3533 19.9397 54.08 21.1797 54.08C22.233 54.08 23.1397 54.28 23.8997 54.68C24.6597 55.0667 25.2464 55.6133 25.6597 56.32C26.0864 57.0133 26.2997 57.8467 26.2997 58.82C26.2997 59.1 26.2797 59.38 26.2397 59.66C26.213 59.94 26.173 60.2067 26.1197 60.46H17.2197L17.5397 58.64H24.6597L23.3797 59.2C23.4864 58.6 23.453 58.1 23.2797 57.7C23.1064 57.2867 22.8264 56.9733 22.4397 56.76C22.053 56.5333 21.5864 56.42 21.0397 56.42C20.3597 56.42 19.7797 56.5867 19.2997 56.92C18.833 57.24 18.4797 57.6867 18.2397 58.26C17.9997 58.8333 17.8797 59.48 17.8797 60.2C17.8797 61.0267 18.1064 61.6467 18.5597 62.06C19.0264 62.46 19.7264 62.66 20.6597 62.66C21.2064 62.66 21.733 62.5733 22.2397 62.4C22.7464 62.2267 23.1797 61.98 23.5397 61.66L24.8397 63.72C24.213 64.2133 23.5064 64.58 22.7197 64.82C21.9464 65.0467 21.153 65.16 20.3397 65.16ZM25.7983 64.98L26.4783 62.42C26.5716 62.4333 26.6583 62.4467 26.7383 62.46C26.8049 62.46 26.8783 62.46 26.9583 62.46C27.3849 62.46 27.7449 62.3 28.0383 61.98C28.3316 61.66 28.5849 61.2067 28.7983 60.62C29.0116 60.02 29.2116 59.3267 29.3983 58.54L30.4383 54.24H39.6383L37.4783 65H34.3583L36.1583 56.02L36.7183 56.78H31.9783L32.7783 55.98L32.1183 58.7C31.8516 59.82 31.5716 60.7933 31.2783 61.62C30.9849 62.4333 30.6583 63.1067 30.2983 63.64C29.9516 64.1733 29.5449 64.5733 29.0783 64.84C28.6116 65.0933 28.0649 65.22 27.4383 65.22C27.1583 65.22 26.8916 65.2 26.6383 65.16C26.3849 65.12 26.1049 65.06 25.7983 64.98ZM46.2186 65.16C45.0986 65.16 44.1253 64.96 43.2986 64.56C42.4853 64.16 41.8519 63.6 41.3986 62.88C40.9453 62.16 40.7186 61.3133 40.7186 60.34C40.7186 59.14 40.9853 58.0733 41.5186 57.14C42.0653 56.1933 42.8119 55.4467 43.7586 54.9C44.7186 54.3533 45.8186 54.08 47.0586 54.08C48.1119 54.08 49.0186 54.28 49.7786 54.68C50.5386 55.0667 51.1253 55.6133 51.5386 56.32C51.9653 57.0133 52.1786 57.8467 52.1786 58.82C52.1786 59.1 52.1586 59.38 52.1186 59.66C52.0919 59.94 52.0519 60.2067 51.9986 60.46H43.0986L43.4186 58.64H50.5386L49.2586 59.2C49.3653 58.6 49.3319 58.1 49.1586 57.7C48.9853 57.2867 48.7053 56.9733 48.3186 56.76C47.9319 56.5333 47.4653 56.42 46.9186 56.42C46.2386 56.42 45.6586 56.5867 45.1786 56.92C44.7119 57.24 44.3586 57.6867 44.1186 58.26C43.8786 58.8333 43.7586 59.48 43.7586 60.2C43.7586 61.0267 43.9853 61.6467 44.4386 62.06C44.9053 62.46 45.6053 62.66 46.5386 62.66C47.0853 62.66 47.6119 62.5733 48.1186 62.4C48.6253 62.2267 49.0586 61.98 49.4186 61.66L50.7186 63.72C50.0919 64.2133 49.3853 64.58 48.5986 64.82C47.8253 65.0467 47.0319 65.16 46.2186 65.16ZM60.7948 60.94C60.3282 61.18 59.8148 61.3667 59.2548 61.5C58.7082 61.62 58.1415 61.68 57.5548 61.68C56.0882 61.68 55.0215 61.34 54.3548 60.66C53.7015 59.9667 53.5082 58.9133 53.7748 57.5L54.4348 54.24H57.5548L56.8748 57.54C56.7548 58.2067 56.8215 58.6667 57.0748 58.92C57.3282 59.16 57.7415 59.28 58.3148 59.28C58.8082 59.28 59.2882 59.2133 59.7548 59.08C60.2215 58.9467 60.6615 58.78 61.0748 58.58L60.7948 60.94ZM59.6948 65L61.8348 54.24H64.9548L62.7948 65H59.6948ZM71.5311 65.16C70.4111 65.16 69.4378 64.96 68.6111 64.56C67.7978 64.16 67.1644 63.6 66.7111 62.88C66.2578 62.16 66.0311 61.3133 66.0311 60.34C66.0311 59.14 66.2978 58.0733 66.8311 57.14C67.3778 56.1933 68.1244 55.4467 69.0711 54.9C70.0311 54.3533 71.1311 54.08 72.3711 54.08C73.4244 54.08 74.3311 54.28 75.0911 54.68C75.8511 55.0667 76.4378 55.6133 76.8511 56.32C77.2778 57.0133 77.4911 57.8467 77.4911 58.82C77.4911 59.1 77.4711 59.38 77.4311 59.66C77.4044 59.94 77.3644 60.2067 77.3111 60.46H68.4111L68.7311 58.64H75.8511L74.5711 59.2C74.6778 58.6 74.6444 58.1 74.4711 57.7C74.2978 57.2867 74.0178 56.9733 73.6311 56.76C73.2444 56.5333 72.7778 56.42 72.2311 56.42C71.5511 56.42 70.9711 56.5867 70.4911 56.92C70.0244 57.24 69.6711 57.6867 69.4311 58.26C69.1911 58.8333 69.0711 59.48 69.0711 60.2C69.0711 61.0267 69.2978 61.6467 69.7511 62.06C70.2178 62.46 70.9178 62.66 71.8511 62.66C72.3978 62.66 72.9244 62.5733 73.4311 62.4C73.9378 62.2267 74.3711 61.98 74.7311 61.66L76.0311 63.72C75.4044 64.2133 74.6978 64.58 73.9111 64.82C73.1378 65.0467 72.3444 65.16 71.5311 65.16ZM86.0873 65L83.6473 59.88L86.2273 58.7L89.6873 65H86.0873ZM78.4473 65L80.6073 54.24H83.7273L81.5673 65H78.4473ZM81.4873 60.92L81.9473 58.42H85.7273L85.2473 60.92H81.4873ZM86.3473 60L83.4073 59.64L88.2873 54.24H91.6873L86.3473 60Z" fill="#1C3272"/>
</svg>
