<svg width="14" height="11" viewBox="0 0 14 11" fill="none" xmlns="http://www.w3.org/2000/svg">
<path fill-rule="evenodd" clip-rule="evenodd" d="M12.0009 1.17408C12.5517 1.32521 12.9854 1.77052 13.1326 2.33602C13.4001 3.36093 13.4001 5.49941 13.4001 5.49941C13.4001 5.49941 13.4001 7.63782 13.1326 8.6628C12.9854 9.22831 12.5517 9.67362 12.0009 9.82482C11.0028 10.0994 7.0001 10.0994 7.0001 10.0994C7.0001 10.0994 2.99741 10.0994 1.99923 9.82482C1.44846 9.67362 1.01472 9.22831 0.867516 8.6628C0.600098 7.63782 0.600098 5.49941 0.600098 5.49941C0.600098 5.49941 0.600098 3.36093 0.867516 2.33602C1.01472 1.77052 1.44846 1.32521 1.99923 1.17408C2.99741 0.899414 7.0001 0.899414 7.0001 0.899414C7.0001 0.899414 11.0028 0.899414 12.0009 1.17408ZM5.80011 3.69937V7.69937L9.00011 5.69945L5.80011 3.69937Z" fill="#EA3824"/>
</svg>
