<svg width="36" height="43" viewBox="0 0 36 43" fill="none" xmlns="http://www.w3.org/2000/svg">
<path d="M18.2101 8.23299C18.4029 8.64597 18.7805 8.89505 19.0874 9.20358C22.9586 13.0859 26.8377 16.9587 30.7136 20.8346C32.3688 22.4881 34.0223 24.1433 35.6791 25.7968C36.0422 26.16 36.0487 26.2114 35.6935 26.5665C34.2521 28.0128 32.8091 29.459 31.366 30.9021C30.9965 31.2717 30.9675 31.27 30.6044 30.9085C26.5533 26.859 22.5038 22.8095 18.4543 18.76C18.0156 18.323 18.0156 18.3213 17.585 18.752C13.5548 22.7822 9.52456 26.8124 5.49275 30.8426C5.02031 31.315 4.99621 31.315 4.52377 30.841C3.1177 29.4349 1.71163 28.0289 0.303949 26.6228C-0.0977851 26.2211 -0.0993922 26.1809 0.28788 25.7936C6.04232 20.0424 11.7968 14.2911 17.5496 8.5367C17.6412 8.44511 17.7714 8.37761 17.789 8.22656C17.9304 8.23138 18.0702 8.23138 18.2101 8.23299Z" fill="white"/>
<path d="M17.9401 42.7841C16.1146 42.6796 14.2811 42.5623 12.4621 42.2056C11.2295 41.9645 10.0179 41.6576 8.83198 41.2671C7.27807 40.7561 5.77237 40.1133 4.33256 39.3243C2.90399 38.5417 1.54131 37.6595 0.252543 36.6632C-0.0415267 36.4367 -0.0752725 36.284 0.201121 36.0108C1.76146 34.4682 3.31055 32.9126 4.85321 31.3523C4.99783 31.2045 5.083 31.2286 5.21477 31.333C6.3814 32.2554 7.68142 32.9657 9.0216 33.5908C10.0934 34.0905 11.2151 34.4762 12.3656 34.7831C14.3647 35.3166 16.3958 35.601 18.4591 35.5464C19.899 35.5078 21.3275 35.3214 22.7416 34.9984C24.1252 34.6819 25.459 34.24 26.7558 33.6743C28.1522 33.0653 29.4635 32.3068 30.6831 31.3957C30.9017 31.2318 31.035 31.2366 31.2247 31.4262C32.7496 32.9609 34.2762 34.4939 35.8189 36.0108C36.0856 36.2727 36.0455 36.419 35.7787 36.6263C34.3228 37.7608 32.7737 38.7442 31.1347 39.5895C29.6756 40.3431 28.157 40.957 26.5935 41.4487C25.5907 41.7637 24.5639 41.9967 23.5306 42.2072C21.6891 42.5816 19.825 42.6844 17.9401 42.7841Z" fill="white"/>
<path d="M18.2101 8.23236C18.0703 8.23236 17.9305 8.23076 17.7907 8.23076C16.6658 8.22594 15.5426 8.22111 14.4177 8.21629C13.8778 8.21147 13.8682 8.20344 13.8682 7.6844C13.8682 5.30292 13.8682 2.91983 13.8682 0.538347C13.8682 0.0273406 13.8858 0.0096644 14.376 0.00805747C16.7992 0.00645053 19.2225 0.0112712 21.6441 2.2596e-05C21.9671 -0.00158434 22.0876 0.0819766 22.086 0.424254C22.0732 2.88608 22.0748 5.34952 22.0844 7.81135C22.086 8.13595 21.9671 8.22272 21.6618 8.22111C20.5129 8.21308 19.3607 8.22594 18.2101 8.23236Z" fill="white"/>
</svg>

