<svg width="162" height="70" viewBox="0 0 162 70" fill="none" xmlns="http://www.w3.org/2000/svg">
<path d="M15.3585 34.9975C15.8138 34.4016 16.3396 33.8912 16.8483 33.3588C16.8768 33.3303 16.9035 33.2997 16.9321 33.269C17.336 32.8221 17.7341 32.3664 18.1475 31.9304C18.6714 31.3761 19.1877 30.8153 19.7039 30.2522C20.165 29.7505 20.6317 29.2554 21.0965 28.7559C21.87 27.9256 22.6434 27.0909 23.4131 26.254C23.8798 25.7457 24.3523 25.244 24.8228 24.7402C25.5868 23.9208 26.3469 23.0992 27.107 22.2755C27.5737 21.7694 28.0462 21.2677 28.5167 20.7616C29.2845 19.9357 30.0522 19.1098 30.8161 18.2795C31.2886 17.7668 31.7648 17.2563 32.2411 16.7481C32.9993 15.9353 33.7537 15.1203 34.5081 14.3031C34.9863 13.7839 35.4702 13.2713 35.9502 12.752C36.457 12.2043 36.9656 11.6566 37.4724 11.1089C37.9582 10.5853 38.444 10.0617 38.9297 9.54031C39.4327 8.99918 39.9356 8.45805 40.4366 7.91692C40.9262 7.38674 41.4196 6.86095 41.9112 6.33077C42.3912 5.81374 42.8732 5.29671 43.3533 4.77968C43.8619 4.23197 44.3668 3.68208 44.8754 3.13657C45.3631 2.61516 45.8394 2.0806 46.3366 1.57233C46.6509 1.25247 46.9119 0.858125 47.2739 0.599609C47.3139 0.645616 47.3082 0.687242 47.2853 0.722295C46.7119 1.66215 46.1366 2.59982 45.565 3.54187C44.5439 5.22003 43.5228 6.896 42.5055 8.57635C41.6444 9.996 40.791 11.42 39.9299 12.8397C39.2365 13.9855 38.5373 15.1269 37.8439 16.2727C36.8932 17.8391 35.9445 19.4077 34.9939 20.9742C34.4052 21.9447 33.8147 22.9108 33.2279 23.8814C32.2773 25.4478 31.3286 27.0164 30.378 28.5828C29.6826 29.7286 28.9873 30.8722 28.29 32.0158C27.709 32.971 27.126 33.924 26.5431 34.877C26.5202 34.9165 26.5088 34.9515 26.5088 34.9953C22.792 34.9975 19.0753 34.9975 15.3585 34.9975Z" fill="white"/>
<path d="M46.209 34.9979C46.249 34.2771 46.31 33.5585 46.3881 32.8421C46.4338 32.4237 46.449 32.0008 46.4852 31.5802C46.5424 30.8967 46.6186 30.2131 46.6605 29.5274C46.6852 29.1221 46.7253 28.7212 46.7557 28.3181C46.811 27.617 46.8758 26.916 46.931 26.2127C46.9672 25.7592 47.0072 25.3035 47.0377 24.8478C47.0815 24.1884 47.1577 23.5333 47.2129 22.8739C47.2491 22.4445 47.272 22.0151 47.3082 21.5857C47.3654 20.9109 47.4377 20.2362 47.4854 19.5592C47.5139 19.1561 47.554 18.753 47.5749 18.3499C47.5844 18.1615 47.6416 18.1461 47.7749 18.1461C48.636 18.1505 49.4971 18.1483 50.3563 18.1483C51.0269 18.1483 51.6974 18.1593 52.368 18.1418C52.5623 18.1374 52.5814 18.2272 52.5642 18.3981C52.488 19.1999 52.3909 20.0018 52.3433 20.8058C52.3147 21.279 52.2632 21.75 52.2366 22.2232C52.2023 22.8476 52.0956 23.4676 52.0689 24.092C52.0461 24.6003 51.947 25.1042 51.9699 25.6278C52.1832 25.5861 52.2842 25.3692 52.429 25.2378C52.9567 24.758 53.4577 24.2388 53.9759 23.7415C54.5836 23.1587 55.1989 22.5847 55.8085 22.002C56.2277 21.5989 56.6392 21.1848 57.0583 20.7817C57.5802 20.28 58.1079 19.7871 58.6299 19.2854C58.9633 18.9655 59.2929 18.6391 59.6187 18.3083C59.712 18.2141 59.8034 18.1461 59.9349 18.1461C60.9255 18.1505 61.9161 18.1483 62.9277 18.1483C62.8306 18.3586 62.6553 18.455 62.5201 18.5887C62.0133 19.0948 61.4875 19.5789 60.9674 20.0675C60.2969 20.6984 59.6225 21.325 58.9557 21.9603C58.4489 22.4445 57.9517 22.9418 57.445 23.426C57.0545 23.7984 56.6563 24.1599 56.26 24.5258C56.1667 24.6112 56.121 24.6857 56.2143 24.8281C56.8335 25.7767 57.4431 26.7341 58.0565 27.6871C58.6299 28.5788 59.2053 29.4704 59.7787 30.3621C60.5369 31.5429 61.3027 32.7172 62.0495 33.9068C62.2743 34.2639 62.5448 34.5838 62.7048 34.9913C60.6017 34.9913 58.5004 34.9913 56.3972 34.9913C56.1115 34.5159 55.8314 34.0361 55.5399 33.5629C54.6979 32.1914 53.854 30.8244 53.0081 29.4551C52.6081 28.8066 52.2042 28.1581 51.7889 27.4899C51.7698 27.7747 51.7565 28.0311 51.7336 28.2874C51.6974 28.6993 51.6727 29.1111 51.6346 29.523C51.5717 30.2066 51.5165 30.8901 51.4612 31.5758C51.4269 31.9964 51.3945 32.4171 51.3602 32.8377C51.3012 33.5563 51.2269 34.2727 51.1869 34.9935C49.5295 34.9979 47.8702 34.9979 46.209 34.9979Z" fill="white"/>
<path d="M145.253 34.9977C145.314 34.3668 145.392 33.738 145.428 33.1071C145.453 32.6777 145.497 32.2483 145.529 31.8189C145.58 31.1266 145.628 30.4321 145.706 29.742C145.752 29.3323 145.771 28.9182 145.801 28.5064C145.855 27.8141 145.904 27.1196 145.979 26.4295C146.028 25.9847 146.034 25.5356 146.078 25.0909C146.14 24.4424 146.184 23.7917 146.247 23.1432C146.289 22.7073 146.316 22.2691 146.352 21.831C146.407 21.1649 146.464 20.4967 146.521 19.8307C146.561 19.3597 146.628 18.8887 146.622 18.4133C146.621 18.2271 146.661 18.1504 146.838 18.1504C148.369 18.157 149.899 18.157 151.431 18.1504C151.593 18.1504 151.621 18.2183 151.61 18.376C151.57 18.8799 151.524 19.3838 151.482 19.8899C151.446 20.3171 151.412 20.7465 151.379 21.1759C151.328 21.8682 151.273 22.5627 151.204 23.2528C151.166 23.6449 151.149 24.0415 151.109 24.4358C151.067 24.8499 151.046 25.2683 151.015 25.7131C151.572 25.1719 152.105 24.6483 152.644 24.1335C153.161 23.6384 153.683 23.152 154.199 22.6569C154.618 22.2538 155.031 21.8419 155.45 21.4388C155.87 21.0379 156.294 20.6457 156.713 20.2448C157.127 19.8483 157.536 19.443 157.948 19.0442C158.234 18.766 158.521 18.4922 158.805 18.2139C158.851 18.1701 158.895 18.1592 158.95 18.1592C159.952 18.1592 160.956 18.1592 162 18.1592C161.741 18.5031 161.438 18.7266 161.171 18.9939C160.783 19.3816 160.377 19.7475 159.979 20.1243C159.466 20.6107 158.952 21.0948 158.439 21.5812C158.047 21.9536 157.66 22.3348 157.27 22.7073C156.78 23.1717 156.287 23.6296 155.797 24.0941C155.618 24.2649 155.445 24.4424 155.266 24.6133C155.189 24.6856 155.229 24.736 155.273 24.8039C155.609 25.3253 155.94 25.8489 156.275 26.3703C156.853 27.2685 157.432 28.1668 158.011 29.065C158.725 30.1758 159.442 31.2865 160.154 32.3994C160.706 33.2648 161.255 34.1345 161.806 35.0021C159.687 35.0021 157.571 35.0021 155.452 35.0021C155.45 34.9758 155.458 34.943 155.447 34.9254C155.148 34.4369 154.847 33.9527 154.547 33.4664C153.704 32.0971 152.861 30.7278 152.018 29.3608C151.648 28.7605 151.275 28.1624 150.865 27.5052C150.836 27.8425 150.812 28.112 150.791 28.3837C150.758 28.8394 150.734 29.295 150.695 29.7485C150.64 30.397 150.572 31.0455 150.516 31.694C150.478 32.1387 150.459 32.5878 150.421 33.0326C150.366 33.6898 150.301 34.3449 150.24 35.0021C148.575 34.9977 146.914 34.9977 145.253 34.9977Z" fill="white"/>
<path d="M122.171 34.9979C122.222 34.3143 122.283 33.6308 122.342 32.9473C122.383 32.4938 122.411 32.0381 122.445 31.5824C122.495 30.9317 122.546 30.281 122.617 29.6326C122.64 29.4266 122.531 29.4924 122.459 29.4924C121.826 29.488 121.194 29.4902 120.563 29.4902C119.428 29.4902 118.294 29.4967 117.159 29.488C116.456 29.4836 115.755 29.4135 115.079 29.1725C114.202 28.8614 113.598 28.2217 113.375 27.1789C113.248 26.583 113.276 25.9739 113.341 25.3692C113.366 25.1392 113.366 24.907 113.389 24.6748C113.471 23.8182 113.505 22.9572 113.585 22.1006C113.654 21.3557 113.707 20.6108 113.768 19.8659C113.812 19.3358 113.867 18.8056 113.897 18.2754C113.909 18.0826 114.025 18.1615 114.097 18.1615C115.34 18.1571 116.58 18.1571 117.822 18.1571C118.111 18.1571 118.401 18.1615 118.691 18.1549C118.83 18.1527 118.894 18.1396 118.851 18.3718C118.776 18.7727 118.778 19.1934 118.744 19.603C118.689 20.2778 118.639 20.9548 118.57 21.6295C118.529 22.0305 118.506 22.4358 118.473 22.8389C118.416 23.5224 118.357 24.2059 118.3 24.8917C118.262 25.3451 118.212 25.8008 118.195 26.2565C118.186 26.5129 118.172 26.7757 118.123 27.0255C118.092 27.1832 118.142 27.1832 118.239 27.1832C118.597 27.181 118.955 27.1832 119.313 27.1832C120.418 27.1832 121.521 27.1832 122.626 27.1854C122.739 27.1854 122.804 27.192 122.823 27.0058C122.878 26.4844 122.903 25.9608 122.95 25.4415C123.009 24.7931 123.074 24.1446 123.129 23.4961C123.167 23.0579 123.188 22.6198 123.225 22.1816C123.28 21.5244 123.354 20.8671 123.4 20.2099C123.428 19.798 123.472 19.3861 123.489 18.9743C123.499 18.7399 123.556 18.5142 123.545 18.2776C123.535 18.0848 123.668 18.1637 123.741 18.1637C125.013 18.1593 126.284 18.1593 127.557 18.1593C127.808 18.1593 128.06 18.1659 128.311 18.1571C128.429 18.1527 128.496 18.1746 128.482 18.3367C128.441 18.8319 128.401 19.3292 128.357 19.8243C128.319 20.2427 128.288 20.6634 128.254 21.084C128.197 21.7763 128.153 22.4708 128.075 23.1609C128.025 23.5969 128.014 24.0372 127.978 24.4732C127.922 25.1305 127.856 25.7877 127.799 26.4449C127.762 26.8743 127.741 27.3037 127.701 27.7331C127.64 28.3904 127.595 29.0498 127.53 29.7071C127.49 30.1255 127.461 30.5483 127.429 30.9668C127.374 31.6503 127.319 32.336 127.256 33.0196C127.218 33.438 127.176 33.8586 127.158 34.2793C127.149 34.5203 127.077 34.7569 127.109 35.0022C125.463 34.9979 123.817 34.9979 122.171 34.9979Z" fill="white"/>
<path d="M0 34.9447C0.7163 34.4474 1.4326 33.9501 2.14699 33.4506C3.09571 32.7846 4.04252 32.1164 4.98933 31.4503C5.96282 30.7668 6.9382 30.0877 7.91168 29.4041C8.84707 28.7491 9.78245 28.0918 10.7178 27.4346C11.6989 26.7467 12.6781 26.061 13.6592 25.373C14.4746 24.8012 15.2919 24.2316 16.1053 23.6576C17.1493 22.9259 18.1914 22.192 19.2334 21.4581C20.2069 20.7745 21.1785 20.0866 22.1501 19.4031C23.0911 18.7415 24.0361 18.082 24.9771 17.4226C25.8687 16.7982 26.7603 16.176 27.6518 15.5494C28.5929 14.8878 29.5359 14.2262 30.477 13.5646C31.4619 12.8723 32.4469 12.1778 33.4337 11.4855C34.2929 10.8808 35.152 10.2784 36.0131 9.67807C36.3598 9.43708 36.7123 9.20267 37.0609 8.96387C37.0723 8.97701 37.0857 8.98797 37.0971 9.00111C36.5961 9.49185 36.0912 9.9804 35.594 10.4755C35.1901 10.8764 34.7977 11.2905 34.3938 11.6914C33.9004 12.18 33.3975 12.6576 32.9041 13.1439C32.5116 13.5317 32.1287 13.9348 31.7363 14.3226C31.2314 14.8221 30.719 15.3128 30.2141 15.8123C29.8388 16.1826 29.4693 16.5638 29.094 16.9362C28.572 17.4533 28.0462 17.9659 27.5242 18.4829C27.1546 18.8488 26.7908 19.2212 26.4212 19.5871C25.8878 20.1151 25.3505 20.6387 24.8171 21.1689C24.4418 21.5413 24.0742 21.9225 23.6989 22.2928C23.1769 22.8098 22.6492 23.3203 22.1272 23.8373C21.7519 24.2097 21.3823 24.5887 21.007 24.9612C20.485 25.4782 19.9592 25.9909 19.4373 26.5079C19.062 26.8803 18.6924 27.2593 18.3171 27.6318C17.7894 28.1554 17.2579 28.6724 16.7302 29.196C16.3549 29.5684 15.9872 29.9496 15.6119 30.3199C15.0899 30.8369 14.5641 31.3474 14.0402 31.8644C13.6764 32.2237 13.3163 32.5918 12.9525 32.9511C12.4133 33.4856 11.8704 34.0158 11.3332 34.5525C11.1922 34.6928 11.0607 34.8439 10.9255 34.9907C7.3535 34.9907 3.77963 34.9907 0.207651 34.9885C0.139069 34.9929 0.0514364 35.0542 0 34.9447Z" fill="white"/>
<path d="M97.5368 34.9975C97.5578 34.2219 97.6397 33.453 97.7159 32.684C97.7578 32.2655 97.7787 31.8427 97.8111 31.4221C97.8645 30.7386 97.9197 30.0528 97.9845 29.3715C98.0245 28.9443 98.0455 28.5127 98.0836 28.0855C98.1445 27.3932 98.1883 26.6987 98.2588 26.0086C98.3007 25.5901 98.3217 25.1673 98.3579 24.7489C98.4169 24.0478 98.4798 23.3468 98.5331 22.6457C98.5674 22.1834 98.6112 21.719 98.6398 21.2545C98.6798 20.6039 98.7713 19.9576 98.8075 19.3069C98.8246 19.0133 98.8741 18.722 98.8627 18.4284C98.857 18.2465 98.9046 18.1523 99.0932 18.1523C103.252 18.1589 107.409 18.1567 111.568 18.1545C111.724 18.1545 111.789 18.1743 111.728 18.3868C111.67 18.5883 111.682 18.814 111.67 19.0265C111.648 19.4493 111.583 19.8656 111.571 20.2862C111.569 20.3935 111.533 20.422 111.449 20.4155C111.396 20.4111 111.343 20.4155 111.289 20.4155C108.853 20.4155 106.416 20.422 103.978 20.4067C103.728 20.4045 103.677 20.5228 103.662 20.7485C103.618 21.4013 103.578 22.0542 103.522 22.7049C103.454 23.5067 103.376 24.3085 103.294 25.1104C103.273 25.3141 103.336 25.3513 103.503 25.3513C105.14 25.3448 106.778 25.3514 108.415 25.3404C108.609 25.3382 108.664 25.3974 108.645 25.6142C108.592 26.1882 108.548 26.7622 108.508 27.3362C108.5 27.4348 108.462 27.4501 108.394 27.448C108.34 27.4458 108.287 27.448 108.234 27.448C106.597 27.448 104.959 27.4501 103.322 27.4458C103.185 27.4458 103.122 27.4523 103.105 27.6561C103.029 28.5894 102.949 29.5227 102.879 30.4559C102.839 30.9949 102.778 31.5316 102.743 32.0728C102.73 32.2918 102.606 32.5854 102.741 32.7103C102.863 32.822 103.119 32.7475 103.317 32.7475C105.708 32.7475 108.098 32.7475 110.491 32.7475C110.573 32.7475 110.657 32.7475 110.725 32.7475C110.67 33.5143 110.617 34.2592 110.564 35.0041C106.22 34.9975 101.878 34.9975 97.5368 34.9975Z" fill="white"/>
<path d="M129.987 34.9981C130.05 34.435 130.088 33.8698 130.128 33.3046C130.188 32.4918 130.296 31.6834 130.344 30.8706C130.372 30.3974 130.424 29.9263 130.45 29.4531C130.487 28.8112 130.586 28.1737 130.618 27.5318C130.641 27.0827 130.689 26.6379 130.721 26.1932C130.769 25.525 130.841 24.8612 130.896 24.193C130.934 23.7461 130.955 23.2991 130.991 22.8522C131.047 22.1774 131.113 21.5027 131.171 20.8279C131.207 20.3897 131.233 19.9516 131.266 19.5134C131.296 19.0928 131.329 18.6721 131.355 18.2515C131.361 18.1683 131.395 18.1485 131.456 18.1529C131.494 18.1551 131.532 18.1529 131.571 18.1529C135.737 18.1529 139.903 18.1529 144.07 18.1529C144.115 18.1529 144.161 18.1529 144.205 18.1529C144.222 18.6897 144.112 19.2089 144.102 19.7369C144.098 19.9231 144.045 20.1115 144.06 20.3021C144.066 20.3788 144.035 20.4138 143.969 20.4095C143.915 20.4073 143.862 20.4095 143.809 20.4095C141.349 20.4095 138.888 20.4138 136.428 20.4029C136.204 20.4029 136.16 20.4817 136.147 20.7271C136.108 21.3953 136.046 22.0613 135.981 22.7273C135.943 23.1195 135.908 23.516 135.886 23.9104C135.863 24.3157 135.815 24.7166 135.785 25.1197C135.769 25.3081 135.828 25.3475 135.985 25.3475C137.623 25.341 139.259 25.3432 140.898 25.3432C141.17 25.3432 141.174 25.3519 141.105 25.6696C141.058 25.8887 141.075 26.1165 141.056 26.3378C141.031 26.6116 140.972 26.8855 140.995 27.1637C141.012 27.3653 140.942 27.4485 140.749 27.4485C139.118 27.4398 137.49 27.4507 135.859 27.4354C135.621 27.4332 135.573 27.5581 135.558 27.7684C135.51 28.4212 135.474 29.0741 135.419 29.727C135.35 30.5398 135.266 31.3482 135.194 32.161C135.177 32.3472 135.219 32.54 135.143 32.7459C135.24 32.7459 135.324 32.7459 135.405 32.7459C137.888 32.7459 140.372 32.7459 142.854 32.7459C143.216 32.7459 143.243 32.7897 143.191 33.2016C143.117 33.7975 143.069 34.3978 143.054 35.0024C138.701 34.9981 134.344 34.9981 129.987 34.9981Z" fill="white"/>
<path d="M64.3546 34.9977C64.3831 34.2419 64.4612 33.4904 64.5279 32.7368C64.566 32.3008 64.5908 31.8605 64.6289 31.4245C64.6879 30.741 64.7641 30.0574 64.8041 29.3739C64.8289 28.9599 64.8708 28.5502 64.9013 28.1383C64.9546 27.4285 65.0213 26.7187 65.0766 26.0088C65.1109 25.5553 65.1528 25.0996 65.1833 24.644C65.2271 23.9845 65.3033 23.3295 65.3585 22.6722C65.3947 22.2341 65.4176 21.7959 65.4538 21.3577C65.5109 20.6742 65.5757 19.9907 65.6328 19.3071C65.6576 19.0158 65.6709 18.72 65.6805 18.4264C65.6862 18.2446 65.7243 18.1504 65.9129 18.1504C70.0716 18.157 74.2284 18.1548 78.3872 18.1526C78.5453 18.1526 78.6063 18.1723 78.5453 18.3848C78.4881 18.5864 78.511 18.8098 78.4843 19.0245C78.4329 19.4408 78.4119 19.8636 78.3891 20.2842C78.3834 20.3916 78.3491 20.4201 78.2672 20.4135C78.2138 20.4091 78.1605 20.4135 78.1071 20.4135C75.6706 20.4135 73.234 20.4201 70.7955 20.4047C70.546 20.4025 70.4945 20.5208 70.4793 20.7465C70.4355 21.3994 70.3955 22.0522 70.3402 22.7051C70.2717 23.5069 70.1935 24.3088 70.1116 25.1106C70.0907 25.3143 70.1535 25.3516 70.3212 25.3516C71.9576 25.345 73.596 25.3516 75.2324 25.3406C75.4267 25.3384 75.482 25.3976 75.4629 25.6145C75.4096 26.1885 75.3658 26.7625 75.3258 27.3365C75.3181 27.435 75.28 27.4504 75.2115 27.4482C75.1353 27.446 75.059 27.4482 74.9828 27.4482C73.3693 27.4482 71.7538 27.4504 70.1402 27.446C70.003 27.446 69.9402 27.4526 69.923 27.6563C69.8449 28.6071 69.763 29.5558 69.6982 30.5088C69.6544 31.1682 69.5839 31.8232 69.5172 32.4805C69.4963 32.6952 69.5515 32.7543 69.7459 32.7543C72.2662 32.7456 74.7866 32.7478 77.307 32.7478C77.3889 32.7478 77.4727 32.7478 77.5432 32.7478C77.488 33.5145 77.4327 34.2594 77.3794 35.0043C73.0378 34.9977 68.6962 34.9977 64.3546 34.9977Z" fill="white"/>
<path d="M78.7968 34.9975C79.012 34.5155 79.2254 34.0313 79.4464 33.5537C79.7283 32.9469 80.0179 32.3444 80.3056 31.7397C80.959 30.3683 81.6143 28.9968 82.2639 27.6232C82.6145 26.8849 82.9498 26.1378 83.3003 25.3973C83.9594 23.9996 84.6262 22.6062 85.2854 21.2107C85.6378 20.4636 85.9864 19.7122 86.335 18.9651C86.3846 18.8599 86.4513 18.7635 86.4798 18.6518C86.5922 18.2093 86.8494 18.1326 87.2247 18.1435C88.3201 18.1764 89.4174 18.1611 90.5147 18.1501C90.6881 18.1479 90.7624 18.2158 90.8176 18.3977C91.2863 19.9663 91.7473 21.5393 92.2407 23.097C92.6903 24.5122 93.1208 25.9363 93.559 27.3559C94.1724 29.3517 94.7801 31.3476 95.3974 33.3412C95.5669 33.8911 95.7651 34.43 95.8908 34.9975C94.0619 34.9975 92.235 34.9975 90.4061 34.9975C90.4004 34.9471 90.3985 34.8945 90.3852 34.8463C90.2366 34.3052 90.0766 33.7684 89.928 33.2273C89.4498 31.4856 88.9488 29.7505 88.4592 28.011C88.1544 26.9331 87.8572 25.8508 87.5524 24.7729C87.3943 24.2121 87.2247 23.6556 87.0399 23.0247C87.0171 23.2284 86.9275 23.3139 86.8761 23.4278C86.3712 24.5232 85.8588 25.6164 85.352 26.7096C84.8548 27.7809 84.3614 28.8566 83.8661 29.9279C83.2946 31.1657 82.7193 32.4035 82.1477 33.6413C81.9401 34.0905 81.7115 34.5242 81.5381 34.9931C80.6256 34.9975 79.7112 34.9975 78.7968 34.9975Z" fill="white"/>
<path d="M30.5323 34.9976C30.7761 34.5113 31.02 34.0271 31.2619 33.5407C31.7763 32.5001 32.2926 31.4595 32.8031 30.4166C33.1651 29.6761 33.5194 28.9313 33.8833 28.1908C34.39 27.1633 34.9044 26.1424 35.4092 25.1127C35.8302 24.2561 36.2417 23.3907 36.6647 22.5341C37.1714 21.5066 37.6839 20.4835 38.1925 19.4582C38.3773 19.0858 38.5545 18.7089 38.7621 18.2773C38.7621 18.9017 38.6821 19.4538 38.6364 20.0081C38.6173 20.2294 38.6021 20.4528 38.583 20.6763C38.5221 21.3861 38.4573 22.0959 38.404 22.8058C38.3678 23.2768 38.322 23.75 38.2954 24.2232C38.2611 24.8476 38.1601 25.4676 38.1277 26.092C38.1049 26.5411 38.0611 26.9858 38.023 27.4306C37.9696 28.079 37.9163 28.7297 37.8572 29.3782C37.8153 29.8229 37.7886 30.2698 37.7505 30.7168C37.6953 31.374 37.6496 32.0334 37.581 32.6907C37.5391 33.0828 37.5124 33.4794 37.4857 33.8737C37.4591 34.2505 37.4324 34.6252 37.3886 34.9998C35.1025 34.9976 32.8164 34.9976 30.5323 34.9976Z" fill="white"/>
<path d="M0.68 65L3.48 51H6.68L4.82 60.12L13.32 51H16.4L13.6 65H10.4L12.28 55.9L3.76 65H0.68ZM16.8458 65L19.0058 54.24H22.1058L21.2658 58.44H25.9458L26.7858 54.24H29.8858L27.7458 65H24.6258L25.4258 60.98H20.7658L19.9658 65H16.8458ZM36.4125 65.16C35.3058 65.16 34.3392 64.96 33.5125 64.56C32.6992 64.16 32.0658 63.6 31.6125 62.88C31.1592 62.16 30.9325 61.3133 30.9325 60.34C30.9325 59.14 31.2125 58.0733 31.7725 57.14C32.3325 56.1933 33.1058 55.4467 34.0925 54.9C35.0792 54.3533 36.2125 54.08 37.4925 54.08C38.6392 54.08 39.6325 54.32 40.4725 54.8C41.3125 55.2667 41.9325 55.9333 42.3325 56.8L39.6925 58.12C39.4658 57.6133 39.1458 57.2467 38.7325 57.02C38.3325 56.78 37.8525 56.66 37.2925 56.66C36.6792 56.66 36.1325 56.8133 35.6525 57.12C35.1725 57.4133 34.7925 57.8267 34.5125 58.36C34.2325 58.88 34.0925 59.4867 34.0925 60.18C34.0925 60.9133 34.3058 61.5 34.7325 61.94C35.1725 62.3667 35.7925 62.58 36.5925 62.58C37.1392 62.58 37.6392 62.4667 38.0925 62.24C38.5458 62 38.9258 61.6333 39.2325 61.14L41.5325 62.58C41.0258 63.3933 40.3192 64.0267 39.4125 64.48C38.5192 64.9333 37.5192 65.16 36.4125 65.16ZM47.5661 65.16C46.7394 65.16 45.9728 64.9733 45.2661 64.6C44.5594 64.2133 43.9928 63.66 43.5661 62.94C43.1394 62.22 42.9261 61.3533 42.9261 60.34C42.9261 59.4333 43.0728 58.6 43.3661 57.84C43.6728 57.08 44.0994 56.42 44.6461 55.86C45.1928 55.3 45.8261 54.8667 46.5461 54.56C47.2661 54.24 48.0394 54.08 48.8661 54.08C49.7594 54.08 50.5261 54.2467 51.1661 54.58C51.8061 54.9133 52.2794 55.4333 52.5861 56.14C52.9061 56.8333 53.0194 57.7333 52.9261 58.84C52.8594 60.1067 52.5994 61.22 52.1461 62.18C51.6928 63.1267 51.0794 63.86 50.3061 64.38C49.5461 64.9 48.6328 65.16 47.5661 65.16ZM48.5261 62.58C49.1394 62.58 49.6794 62.4333 50.1461 62.14C50.6261 61.8333 50.9994 61.42 51.2661 60.9C51.5461 60.3667 51.6861 59.7467 51.6861 59.04C51.6861 58.3067 51.4661 57.7267 51.0261 57.3C50.5994 56.8733 49.9994 56.66 49.2261 56.66C48.6261 56.66 48.0861 56.8133 47.6061 57.12C47.1261 57.4133 46.7461 57.8267 46.4661 58.36C46.1994 58.88 46.0661 59.4933 46.0661 60.2C46.0661 60.9333 46.2794 61.5133 46.7061 61.94C47.1461 62.3667 47.7528 62.58 48.5261 62.58ZM50.6661 65L51.0861 62.86L51.7861 59.66L52.2061 56.46L52.6461 54.24H55.7661L53.6261 65H50.6661ZM56.6114 65L58.7714 54.24H61.8714L61.0314 58.44H65.7114L66.5514 54.24H69.6514L67.5114 65H64.3914L65.1914 60.98H60.5314L59.7314 65H56.6114Z" fill="#1C3272"/>
</svg>
