<svg width="143" height="43" viewBox="0 0 143 43" fill="none" xmlns="http://www.w3.org/2000/svg">
<path d="M18.2101 8.23299C18.4029 8.64597 18.7805 8.89505 19.0874 9.20358C22.9586 13.0859 26.8377 16.9587 30.7136 20.8346C32.3688 22.4881 34.0223 24.1433 35.6791 25.7968C36.0422 26.16 36.0487 26.2114 35.6935 26.5665C34.2521 28.0128 32.8091 29.459 31.366 30.9021C30.9965 31.2717 30.9675 31.27 30.6044 30.9085C26.5533 26.859 22.5038 22.8095 18.4543 18.76C18.0156 18.323 18.0156 18.3213 17.585 18.752C13.5548 22.7822 9.52456 26.8124 5.49275 30.8426C5.02031 31.315 4.99621 31.315 4.52377 30.841C3.1177 29.4349 1.71163 28.0289 0.303949 26.6228C-0.0977851 26.2211 -0.0993922 26.1809 0.28788 25.7936C6.04232 20.0424 11.7968 14.2911 17.5496 8.5367C17.6412 8.44511 17.7714 8.37761 17.789 8.22656C17.9304 8.23138 18.0702 8.23138 18.2101 8.23299Z" fill="#27376C"/>
<path d="M17.9401 42.7841C16.1146 42.6796 14.2811 42.5623 12.4621 42.2056C11.2295 41.9645 10.0179 41.6576 8.83198 41.2671C7.27807 40.7561 5.77237 40.1133 4.33256 39.3243C2.90399 38.5417 1.54131 37.6595 0.252543 36.6632C-0.0415267 36.4367 -0.0752725 36.284 0.201121 36.0108C1.76146 34.4682 3.31055 32.9126 4.85321 31.3523C4.99783 31.2045 5.083 31.2286 5.21477 31.333C6.3814 32.2554 7.68142 32.9657 9.0216 33.5908C10.0934 34.0905 11.2151 34.4762 12.3656 34.7831C14.3647 35.3166 16.3958 35.601 18.4591 35.5464C19.899 35.5078 21.3275 35.3214 22.7416 34.9984C24.1252 34.6819 25.459 34.24 26.7558 33.6743C28.1522 33.0653 29.4635 32.3068 30.6831 31.3957C30.9017 31.2318 31.035 31.2366 31.2247 31.4262C32.7496 32.9609 34.2762 34.4939 35.8189 36.0108C36.0856 36.2727 36.0455 36.419 35.7787 36.6263C34.3228 37.7608 32.7737 38.7442 31.1347 39.5895C29.6756 40.3431 28.157 40.957 26.5935 41.4487C25.5907 41.7637 24.5639 41.9967 23.5306 42.2072C21.6891 42.5816 19.825 42.6844 17.9401 42.7841Z" fill="#27376C"/>
<path d="M18.2101 8.23236C18.0703 8.23236 17.9305 8.23076 17.7907 8.23076C16.6658 8.22594 15.5426 8.22111 14.4177 8.21629C13.8778 8.21147 13.8682 8.20344 13.8682 7.6844C13.8682 5.30292 13.8682 2.91983 13.8682 0.538347C13.8682 0.0273406 13.8858 0.00966441 14.376 0.00805747C16.7992 0.00645053 19.2225 0.0112712 21.6441 2.2596e-05C21.9671 -0.00158434 22.0876 0.0819766 22.086 0.424254C22.0732 2.88608 22.0748 5.34952 22.0844 7.81135C22.086 8.13595 21.9671 8.22272 21.6618 8.22111C20.5129 8.21308 19.3607 8.22593 18.2101 8.23236Z" fill="#27376C"/>
<path d="M52.52 13.7932H56.328V23.4532C56.328 23.9198 56.3187 24.4425 56.3 25.0212C56.2813 25.5998 56.2627 26.1692 56.244 26.7292C56.2253 27.2705 56.2067 27.7465 56.188 28.1572C56.1693 28.5492 56.1507 28.8198 56.132 28.9692H56.216L65.456 13.7932H70.524V33.7852H66.744V24.1812C66.744 23.6772 66.7533 23.1265 66.772 22.5292C66.7907 21.9132 66.8093 21.3252 66.828 20.7652C66.8653 20.2052 66.8933 19.7198 66.912 19.3092C66.9493 18.8798 66.9773 18.5998 66.996 18.4692H66.884L57.616 33.7852H52.52V13.7932ZM79.6068 18.4972V24.3772H85.4308V18.4972H89.6028V33.7852H85.4308V27.4852H79.6068V33.7852H75.4348V18.4972H79.6068ZM100.39 34.0652C98.8778 34.0652 97.5898 33.7945 96.5258 33.2532C95.4618 32.6932 94.6498 31.8345 94.0898 30.6772C93.5298 29.5198 93.2498 28.0358 93.2498 26.2252C93.2498 24.3585 93.5672 22.8372 94.2018 21.6612C94.8365 20.4852 95.7138 19.6172 96.8338 19.0572C97.9725 18.4972 99.2792 18.2172 100.754 18.2172C101.799 18.2172 102.705 18.3198 103.47 18.5252C104.254 18.7305 104.935 18.9732 105.514 19.2532L104.282 22.4732C103.629 22.2118 103.013 21.9972 102.434 21.8292C101.874 21.6612 101.314 21.5772 100.754 21.5772C100.026 21.5772 99.4192 21.7545 98.9338 22.1092C98.4485 22.4452 98.0845 22.9585 97.8418 23.6492C97.6178 24.3212 97.5058 25.1705 97.5058 26.1972C97.5058 27.2052 97.6272 28.0452 97.8698 28.7172C98.1312 29.3705 98.5045 29.8652 98.9898 30.2012C99.4752 30.5185 100.063 30.6772 100.754 30.6772C101.631 30.6772 102.406 30.5652 103.078 30.3412C103.75 30.0985 104.403 29.7718 105.038 29.3612V32.9172C104.403 33.3278 103.731 33.6172 103.022 33.7852C102.331 33.9718 101.454 34.0652 100.39 34.0652ZM115.029 18.1892C117.082 18.1892 118.65 18.6372 119.733 19.5332C120.834 20.4105 121.385 21.7638 121.385 23.5932V33.7852H118.473L117.661 31.7132H117.549C117.119 32.2545 116.671 32.7025 116.205 33.0572C115.757 33.4118 115.234 33.6638 114.637 33.8132C114.058 33.9812 113.339 34.0652 112.481 34.0652C111.585 34.0652 110.773 33.8972 110.045 33.5612C109.335 33.2065 108.775 32.6745 108.365 31.9652C107.954 31.2372 107.749 30.3225 107.749 29.2212C107.749 27.5972 108.318 26.4025 109.457 25.6372C110.595 24.8532 112.303 24.4238 114.581 24.3492L117.241 24.2652V23.5932C117.241 22.7905 117.026 22.2025 116.597 21.8292C116.186 21.4558 115.607 21.2692 114.861 21.2692C114.114 21.2692 113.386 21.3812 112.677 21.6052C111.967 21.8105 111.258 22.0718 110.549 22.3892L109.177 19.5612C109.998 19.1318 110.903 18.7958 111.893 18.5532C112.901 18.3105 113.946 18.1892 115.029 18.1892ZM115.617 26.7572C114.273 26.7945 113.339 27.0372 112.817 27.4852C112.294 27.9332 112.033 28.5212 112.033 29.2492C112.033 29.8838 112.219 30.3412 112.593 30.6212C112.966 30.8825 113.451 31.0132 114.049 31.0132C114.945 31.0132 115.701 30.7518 116.317 30.2292C116.933 29.6878 117.241 28.9318 117.241 27.9612V26.7012L115.617 26.7572ZM130.027 18.4972V24.3772H135.851V18.4972H140.023V33.7852H135.851V27.4852H130.027V33.7852H125.855V18.4972H130.027Z" fill="#27376C"/>
</svg>
