<svg width="12" height="10" viewBox="0 0 12 10" fill="none" xmlns="http://www.w3.org/2000/svg">
<path d="M0.824937 4.28122C4.04616 2.87779 6.19414 1.95256 7.26889 1.50553C10.3375 0.229185 10.9751 0.0074702 11.3907 7.09769e-05C11.4822 -0.00146117 11.6865 0.0211922 11.8189 0.128617C11.9307 0.219324 11.9615 0.341857 11.9762 0.427857C11.9909 0.513857 12.0092 0.709769 11.9947 0.862848C11.8284 2.61007 11.1088 6.85012 10.7428 8.80704C10.5879 9.63508 10.2829 9.91272 9.98764 9.93989C9.34596 9.99894 8.8587 9.51583 8.2372 9.10843C7.26468 8.47093 6.71527 8.07409 5.77127 7.452C4.68032 6.73308 5.38754 6.33795 6.00927 5.69219C6.17198 5.5232 8.99923 2.9516 9.05395 2.71831C9.06079 2.68913 9.06714 2.58038 9.00253 2.52295C8.93793 2.46553 8.84257 2.48516 8.77375 2.50078C8.67621 2.52292 7.1226 3.5498 4.11292 5.58142C3.67193 5.88424 3.2725 6.03178 2.91462 6.02405C2.52009 6.01553 1.76117 5.80098 1.19699 5.61758C0.504996 5.39264 -0.0449838 5.27372 0.00290711 4.8917C0.0278516 4.69272 0.301862 4.48923 0.824937 4.28122Z" fill="#27376C"/>
</svg>
