<svg width="12" height="11" viewBox="0 0 12 11" fill="none" xmlns="http://www.w3.org/2000/svg">
<path d="M0.824937 4.58103C4.04616 3.17759 6.19414 2.25236 7.26889 1.80534C10.3375 0.52899 10.9751 0.307275 11.3907 0.299876C11.4822 0.298344 11.6865 0.320997 11.8189 0.428421C11.9307 0.519129 11.9615 0.641661 11.9762 0.727662C11.9909 0.813662 12.0092 1.00957 11.9947 1.16265C11.8284 2.90987 11.1088 7.14992 10.7428 9.10684C10.5879 9.93489 10.2829 10.2125 9.98764 10.2397C9.34596 10.2987 8.8587 9.81563 8.2372 9.40823C7.26468 8.77073 6.71527 8.37389 5.77127 7.75181C4.68032 7.03289 5.38754 6.63775 6.00927 5.992C6.17198 5.823 8.99923 3.2514 9.05395 3.01812C9.06079 2.98894 9.06714 2.88018 9.00253 2.82276C8.93793 2.76533 8.84257 2.78497 8.77375 2.80059C8.67621 2.82273 7.1226 3.84961 4.11292 5.88123C3.67193 6.18404 3.2725 6.33159 2.91462 6.32385C2.52009 6.31533 1.76117 6.10078 1.19699 5.91739C0.504996 5.69245 -0.0449838 5.57352 0.00290711 5.19151C0.0278516 4.99253 0.301862 4.78904 0.824937 4.58103Z" fill="#EA3824"/>
</svg>
